<mxfile host="drawio-plugin" modified="2023-10-12T03:32:01.688Z" agent="5.0 (Windows NT 10.0; Win64; x64) AppleWebKit/537.36 (KHTML, like Gecko) Chrome/111.0.0.0 Safari/537.36" etag="x8M9Iqgs8XKae0CSQNtk" version="20.5.3" type="embed"><diagram name="Page-1" id="fwxXnzf6ZEVrYqUmG_S1"><mxGraphModel dx="1295" dy="882" grid="1" gridSize="10" guides="1" tooltips="1" connect="1" arrows="1" fold="1" page="1" pageScale="1" pageWidth="850" pageHeight="1100" math="0" shadow="0"><root><mxCell id="0"/><mxCell id="1" parent="0"/><mxCell id="401" value="Action" style="swimlane;fontStyle=1;align=center;verticalAlign=top;childLayout=stackLayout;horizontal=1;startSize=26;horizontalStack=0;resizeParent=1;resizeParentMax=0;resizeLast=0;collapsible=1;marginBottom=0;" parent="1" vertex="1"><mxGeometry x="520" width="280" height="293" as="geometry"/></mxCell><mxCell id="402" value="- kind: ActionKind" style="text;strokeColor=none;fillColor=none;align=left;verticalAlign=top;spacingLeft=4;spacingRight=4;overflow=hidden;rotatable=0;points=[[0,0.5],[1,0.5]];portConstraint=eastwest;" parent="401" vertex="1"><mxGeometry y="26" width="280" height="26" as="geometry"/></mxCell><mxCell id="405" value="- entity: Entity" style="text;strokeColor=none;fillColor=none;align=left;verticalAlign=top;spacingLeft=4;spacingRight=4;overflow=hidden;rotatable=0;points=[[0,0.5],[1,0.5]];portConstraint=eastwest;" parent="401" vertex="1"><mxGeometry y="52" width="280" height="26" as="geometry"/></mxCell><mxCell id="406" value="- world: WorldModel" style="text;strokeColor=none;fillColor=none;align=left;verticalAlign=top;spacingLeft=4;spacingRight=4;overflow=hidden;rotatable=0;points=[[0,0.5],[1,0.5]];portConstraint=eastwest;" parent="401" vertex="1"><mxGeometry y="78" width="280" height="26" as="geometry"/></mxCell><mxCell id="407" value="- imageStore: ImageStore" style="text;strokeColor=none;fillColor=none;align=left;verticalAlign=top;spacingLeft=4;spacingRight=4;overflow=hidden;rotatable=0;points=[[0,0.5],[1,0.5]];portConstraint=eastwest;" parent="401" vertex="1"><mxGeometry y="104" width="280" height="26" as="geometry"/></mxCell><mxCell id="408" value="- repeatCount: int" style="text;strokeColor=none;fillColor=none;align=left;verticalAlign=top;spacingLeft=4;spacingRight=4;overflow=hidden;rotatable=0;points=[[0,0.5],[1,0.5]];portConstraint=eastwest;" parent="401" vertex="1"><mxGeometry y="130" width="280" height="26" as="geometry"/></mxCell><mxCell id="403" value="" style="line;strokeWidth=1;fillColor=none;align=left;verticalAlign=middle;spacingTop=-1;spacingLeft=3;spacingRight=3;rotatable=0;labelPosition=right;points=[];portConstraint=eastwest;strokeColor=inherit;" parent="401" vertex="1"><mxGeometry y="156" width="280" height="8" as="geometry"/></mxCell><mxCell id="51" value="+ executeAction(EventScheduler): void" style="text;strokeColor=none;fillColor=none;align=left;verticalAlign=top;spacingLeft=4;spacingRight=4;overflow=hidden;rotatable=0;points=[[0,0.5],[1,0.5]];portConstraint=eastwest;" parent="401" vertex="1"><mxGeometry y="164" width="280" height="26" as="geometry"/></mxCell><mxCell id="53" value="+ executeActivityAction(EventScheduler): void" style="text;strokeColor=none;fillColor=none;align=left;verticalAlign=top;spacingLeft=4;spacingRight=4;overflow=hidden;rotatable=0;points=[[0,0.5],[1,0.5]];portConstraint=eastwest;" parent="401" vertex="1"><mxGeometry y="190" width="280" height="25" as="geometry"/></mxCell><mxCell id="52" value="+ executeAnimationAction(EventScheduler): void" style="text;strokeColor=none;fillColor=none;align=left;verticalAlign=top;spacingLeft=4;spacingRight=4;overflow=hidden;rotatable=0;points=[[0,0.5],[1,0.5]];portConstraint=eastwest;" parent="401" vertex="1"><mxGeometry y="215" width="280" height="26" as="geometry"/></mxCell><mxCell id="270" value="+ createActivityAction(Entity, WorldModel, ImageStore): Action &lt;&lt;static&gt;&gt;" style="text;strokeColor=none;fillColor=none;align=left;verticalAlign=top;spacingLeft=4;spacingRight=4;overflow=hidden;rotatable=0;points=[[0,0.5],[1,0.5]];portConstraint=eastwest;" parent="401" vertex="1"><mxGeometry y="241" width="280" height="26" as="geometry"/></mxCell><mxCell id="269" value="+ createAnimationAction(Entity, int): Action &lt;&lt;static&gt;&gt;" style="text;strokeColor=none;fillColor=none;align=left;verticalAlign=top;spacingLeft=4;spacingRight=4;overflow=hidden;rotatable=0;points=[[0,0.5],[1,0.5]];portConstraint=eastwest;" parent="401" vertex="1"><mxGeometry y="267" width="280" height="26" as="geometry"/></mxCell><mxCell id="423" value="Entity" style="swimlane;fontStyle=1;align=center;verticalAlign=top;childLayout=stackLayout;horizontal=1;startSize=26;horizontalStack=0;resizeParent=1;resizeParentMax=0;resizeLast=0;collapsible=1;marginBottom=0;" parent="1" vertex="1"><mxGeometry width="480" height="2166" as="geometry"/></mxCell><mxCell id="9" value="+ SAPLING_ACTION_ANIMATION_PERIOD: double &lt;&lt;static&gt;&gt;" style="text;strokeColor=none;fillColor=none;align=left;verticalAlign=top;spacingLeft=4;spacingRight=4;overflow=hidden;rotatable=0;points=[[0,0.5],[1,0.5]];portConstraint=eastwest;" parent="423" vertex="1"><mxGeometry y="26" width="480" height="26" as="geometry"/></mxCell><mxCell id="10" value="+ SAPLING_HEALTH_LIMIT: int &lt;&lt;static&gt;&gt;" style="text;strokeColor=none;fillColor=none;align=left;verticalAlign=top;spacingLeft=4;spacingRight=4;overflow=hidden;rotatable=0;points=[[0,0.5],[1,0.5]];portConstraint=eastwest;" parent="423" vertex="1"><mxGeometry y="52" width="480" height="26" as="geometry"/></mxCell><mxCell id="11" value="+ PROPERTY_KEY: int &lt;&lt;static&gt;&gt;" style="text;strokeColor=none;fillColor=none;align=left;verticalAlign=top;spacingLeft=4;spacingRight=4;overflow=hidden;rotatable=0;points=[[0,0.5],[1,0.5]];portConstraint=eastwest;" parent="423" vertex="1"><mxGeometry y="78" width="480" height="26" as="geometry"/></mxCell><mxCell id="13" value="+ PROPERTY_ID: int &lt;&lt;static&gt;&gt;" style="text;strokeColor=none;fillColor=none;align=left;verticalAlign=top;spacingLeft=4;spacingRight=4;overflow=hidden;rotatable=0;points=[[0,0.5],[1,0.5]];portConstraint=eastwest;" parent="423" vertex="1"><mxGeometry y="104" width="480" height="26" as="geometry"/></mxCell><mxCell id="14" value="+ PROPERTY_COL: int &lt;&lt;static&gt;&gt;" style="text;strokeColor=none;fillColor=none;align=left;verticalAlign=top;spacingLeft=4;spacingRight=4;overflow=hidden;rotatable=0;points=[[0,0.5],[1,0.5]];portConstraint=eastwest;" parent="423" vertex="1"><mxGeometry y="130" width="480" height="26" as="geometry"/></mxCell><mxCell id="16" value="+ PROPERTY_ROW: int &lt;&lt;static&gt;&gt;" style="text;strokeColor=none;fillColor=none;align=left;verticalAlign=top;spacingLeft=4;spacingRight=4;overflow=hidden;rotatable=0;points=[[0,0.5],[1,0.5]];portConstraint=eastwest;" parent="423" vertex="1"><mxGeometry y="156" width="480" height="26" as="geometry"/></mxCell><mxCell id="17" value="+ ENTITY_NUM_PROPERTIES: int &lt;&lt;static&gt;&gt;" style="text;strokeColor=none;fillColor=none;align=left;verticalAlign=top;spacingLeft=4;spacingRight=4;overflow=hidden;rotatable=0;points=[[0,0.5],[1,0.5]];portConstraint=eastwest;" parent="423" vertex="1"><mxGeometry y="182" width="480" height="26" as="geometry"/></mxCell><mxCell id="18" value="+ STUMP_KEY: String &lt;&lt;static&gt;&gt;" style="text;strokeColor=none;fillColor=none;align=left;verticalAlign=top;spacingLeft=4;spacingRight=4;overflow=hidden;rotatable=0;points=[[0,0.5],[1,0.5]];portConstraint=eastwest;" parent="423" vertex="1"><mxGeometry y="208" width="480" height="26" as="geometry"/></mxCell><mxCell id="19" value="+ STUMP_NUM_PROPERTIES: int &lt;&lt;static&gt;&gt;" style="text;strokeColor=none;fillColor=none;align=left;verticalAlign=top;spacingLeft=4;spacingRight=4;overflow=hidden;rotatable=0;points=[[0,0.5],[1,0.5]];portConstraint=eastwest;" parent="423" vertex="1"><mxGeometry y="234" width="480" height="26" as="geometry"/></mxCell><mxCell id="20" value="+ SAPLING_KEY: String &lt;&lt;static&gt;&gt;" style="text;strokeColor=none;fillColor=none;align=left;verticalAlign=top;spacingLeft=4;spacingRight=4;overflow=hidden;rotatable=0;points=[[0,0.5],[1,0.5]];portConstraint=eastwest;" parent="423" vertex="1"><mxGeometry y="260" width="480" height="26" as="geometry"/></mxCell><mxCell id="21" value="+ SAPLING_HEALTH: int &lt;&lt;static&gt;&gt;" style="text;strokeColor=none;fillColor=none;align=left;verticalAlign=top;spacingLeft=4;spacingRight=4;overflow=hidden;rotatable=0;points=[[0,0.5],[1,0.5]];portConstraint=eastwest;" parent="423" vertex="1"><mxGeometry y="286" width="480" height="26" as="geometry"/></mxCell><mxCell id="22" value="+ SAPLING_NUM_PROPERTIES: int &lt;&lt;static&gt;&gt;" style="text;strokeColor=none;fillColor=none;align=left;verticalAlign=top;spacingLeft=4;spacingRight=4;overflow=hidden;rotatable=0;points=[[0,0.5],[1,0.5]];portConstraint=eastwest;" parent="423" vertex="1"><mxGeometry y="312" width="480" height="26" as="geometry"/></mxCell><mxCell id="23" value="+ OBSTACLE_KEY: int &lt;&lt;static&gt;&gt;" style="text;strokeColor=none;fillColor=none;align=left;verticalAlign=top;spacingLeft=4;spacingRight=4;overflow=hidden;rotatable=0;points=[[0,0.5],[1,0.5]];portConstraint=eastwest;" parent="423" vertex="1"><mxGeometry y="338" width="480" height="26" as="geometry"/></mxCell><mxCell id="24" value="+ OBSTACLE_ANIMATION_PERIOD: int &lt;&lt;static&gt;&gt;" style="text;strokeColor=none;fillColor=none;align=left;verticalAlign=top;spacingLeft=4;spacingRight=4;overflow=hidden;rotatable=0;points=[[0,0.5],[1,0.5]];portConstraint=eastwest;" parent="423" vertex="1"><mxGeometry y="364" width="480" height="26" as="geometry"/></mxCell><mxCell id="25" value="+ OBSTACLE_NUM_PROPERTIES: int &lt;&lt;static&gt;&gt;" style="text;strokeColor=none;fillColor=none;align=left;verticalAlign=top;spacingLeft=4;spacingRight=4;overflow=hidden;rotatable=0;points=[[0,0.5],[1,0.5]];portConstraint=eastwest;" parent="423" vertex="1"><mxGeometry y="390" width="480" height="26" as="geometry"/></mxCell><mxCell id="26" value="+ DUDE_KEY: String &lt;&lt;static&gt;&gt;" style="text;strokeColor=none;fillColor=none;align=left;verticalAlign=top;spacingLeft=4;spacingRight=4;overflow=hidden;rotatable=0;points=[[0,0.5],[1,0.5]];portConstraint=eastwest;" parent="423" vertex="1"><mxGeometry y="416" width="480" height="26" as="geometry"/></mxCell><mxCell id="27" value="+ DUDE_ACTION_PERIOD: int &lt;&lt;static&gt;&gt;" style="text;strokeColor=none;fillColor=none;align=left;verticalAlign=top;spacingLeft=4;spacingRight=4;overflow=hidden;rotatable=0;points=[[0,0.5],[1,0.5]];portConstraint=eastwest;" parent="423" vertex="1"><mxGeometry y="442" width="480" height="26" as="geometry"/></mxCell><mxCell id="28" value="+ DUDE_ANIMATION_PERIOD: int &lt;&lt;static&gt;&gt;" style="text;strokeColor=none;fillColor=none;align=left;verticalAlign=top;spacingLeft=4;spacingRight=4;overflow=hidden;rotatable=0;points=[[0,0.5],[1,0.5]];portConstraint=eastwest;" parent="423" vertex="1"><mxGeometry y="468" width="480" height="26" as="geometry"/></mxCell><mxCell id="29" value="+ DUDE_LIMIT: int &lt;&lt;static&gt;&gt;" style="text;strokeColor=none;fillColor=none;align=left;verticalAlign=top;spacingLeft=4;spacingRight=4;overflow=hidden;rotatable=0;points=[[0,0.5],[1,0.5]];portConstraint=eastwest;" parent="423" vertex="1"><mxGeometry y="494" width="480" height="26" as="geometry"/></mxCell><mxCell id="30" value="+ DUDE_NUM_PROPERTIES: int &lt;&lt;static&gt;&gt;" style="text;strokeColor=none;fillColor=none;align=left;verticalAlign=top;spacingLeft=4;spacingRight=4;overflow=hidden;rotatable=0;points=[[0,0.5],[1,0.5]];portConstraint=eastwest;" parent="423" vertex="1"><mxGeometry y="520" width="480" height="26" as="geometry"/></mxCell><mxCell id="31" value="+ HOUSE_KEY: String &lt;&lt;static&gt;&gt;" style="text;strokeColor=none;fillColor=none;align=left;verticalAlign=top;spacingLeft=4;spacingRight=4;overflow=hidden;rotatable=0;points=[[0,0.5],[1,0.5]];portConstraint=eastwest;" parent="423" vertex="1"><mxGeometry y="546" width="480" height="26" as="geometry"/></mxCell><mxCell id="32" value="+ HOUSE_NUM_PROPERTIES: int &lt;&lt;static&gt;&gt;" style="text;strokeColor=none;fillColor=none;align=left;verticalAlign=top;spacingLeft=4;spacingRight=4;overflow=hidden;rotatable=0;points=[[0,0.5],[1,0.5]];portConstraint=eastwest;" parent="423" vertex="1"><mxGeometry y="572" width="480" height="26" as="geometry"/></mxCell><mxCell id="33" value="+ FAIRY_KEY: String &lt;&lt;static&gt;&gt;" style="text;strokeColor=none;fillColor=none;align=left;verticalAlign=top;spacingLeft=4;spacingRight=4;overflow=hidden;rotatable=0;points=[[0,0.5],[1,0.5]];portConstraint=eastwest;" parent="423" vertex="1"><mxGeometry y="598" width="480" height="26" as="geometry"/></mxCell><mxCell id="34" value="+ FAIRY_ANIMATION_PERIOD: int &lt;&lt;static&gt;&gt;" style="text;strokeColor=none;fillColor=none;align=left;verticalAlign=top;spacingLeft=4;spacingRight=4;overflow=hidden;rotatable=0;points=[[0,0.5],[1,0.5]];portConstraint=eastwest;" parent="423" vertex="1"><mxGeometry y="624" width="480" height="26" as="geometry"/></mxCell><mxCell id="35" value="+ FAIRY_ACTION_PERIOD: int &lt;&lt;static&gt;&gt;" style="text;strokeColor=none;fillColor=none;align=left;verticalAlign=top;spacingLeft=4;spacingRight=4;overflow=hidden;rotatable=0;points=[[0,0.5],[1,0.5]];portConstraint=eastwest;" parent="423" vertex="1"><mxGeometry y="650" width="480" height="26" as="geometry"/></mxCell><mxCell id="37" value="+ FAIRY_NUM_PROPERTIES: int &lt;&lt;static&gt;&gt;" style="text;strokeColor=none;fillColor=none;align=left;verticalAlign=top;spacingLeft=4;spacingRight=4;overflow=hidden;rotatable=0;points=[[0,0.5],[1,0.5]];portConstraint=eastwest;" parent="423" vertex="1"><mxGeometry y="676" width="480" height="26" as="geometry"/></mxCell><mxCell id="38" value="+ TREE_KEY: String &lt;&lt;static&gt;&gt;" style="text;strokeColor=none;fillColor=none;align=left;verticalAlign=top;spacingLeft=4;spacingRight=4;overflow=hidden;rotatable=0;points=[[0,0.5],[1,0.5]];portConstraint=eastwest;" parent="423" vertex="1"><mxGeometry y="702" width="480" height="26" as="geometry"/></mxCell><mxCell id="39" value="+ TREE_ANIMATION_PERIOD: int &lt;&lt;static&gt;&gt;" style="text;strokeColor=none;fillColor=none;align=left;verticalAlign=top;spacingLeft=4;spacingRight=4;overflow=hidden;rotatable=0;points=[[0,0.5],[1,0.5]];portConstraint=eastwest;" parent="423" vertex="1"><mxGeometry y="728" width="480" height="26" as="geometry"/></mxCell><mxCell id="40" value="+ TREE_ACTION_PERIOD: int &lt;&lt;static&gt;&gt;" style="text;strokeColor=none;fillColor=none;align=left;verticalAlign=top;spacingLeft=4;spacingRight=4;overflow=hidden;rotatable=0;points=[[0,0.5],[1,0.5]];portConstraint=eastwest;" parent="423" vertex="1"><mxGeometry y="754" width="480" height="26" as="geometry"/></mxCell><mxCell id="41" value="+ TREE_HEALTH: int &lt;&lt;static&gt;&gt;" style="text;strokeColor=none;fillColor=none;align=left;verticalAlign=top;spacingLeft=4;spacingRight=4;overflow=hidden;rotatable=0;points=[[0,0.5],[1,0.5]];portConstraint=eastwest;" parent="423" vertex="1"><mxGeometry y="780" width="480" height="26" as="geometry"/></mxCell><mxCell id="43" value="+ TREE_NUM_PROPERTIES: int &lt;&lt;static&gt;&gt;" style="text;strokeColor=none;fillColor=none;align=left;verticalAlign=top;spacingLeft=4;spacingRight=4;overflow=hidden;rotatable=0;points=[[0,0.5],[1,0.5]];portConstraint=eastwest;" parent="423" vertex="1"><mxGeometry y="806" width="480" height="26" as="geometry"/></mxCell><mxCell id="44" value="+ TREE_ANIMATION_MAX: double &lt;&lt;static&gt;&gt;" style="text;strokeColor=none;fillColor=none;align=left;verticalAlign=top;spacingLeft=4;spacingRight=4;overflow=hidden;rotatable=0;points=[[0,0.5],[1,0.5]];portConstraint=eastwest;" parent="423" vertex="1"><mxGeometry y="832" width="480" height="26" as="geometry"/></mxCell><mxCell id="45" value="+ TREE_ANIMATION_MIN: double &lt;&lt;static&gt;&gt;" style="text;strokeColor=none;fillColor=none;align=left;verticalAlign=top;spacingLeft=4;spacingRight=4;overflow=hidden;rotatable=0;points=[[0,0.5],[1,0.5]];portConstraint=eastwest;" parent="423" vertex="1"><mxGeometry y="858" width="480" height="26" as="geometry"/></mxCell><mxCell id="46" value="+ TREE_ACTION_MAX: double &lt;&lt;static&gt;&gt;" style="text;strokeColor=none;fillColor=none;align=left;verticalAlign=top;spacingLeft=4;spacingRight=4;overflow=hidden;rotatable=0;points=[[0,0.5],[1,0.5]];portConstraint=eastwest;" parent="423" vertex="1"><mxGeometry y="884" width="480" height="26" as="geometry"/></mxCell><mxCell id="47" value="+ TREE_ACTION_MIN: double &lt;&lt;static&gt;&gt;" style="text;strokeColor=none;fillColor=none;align=left;verticalAlign=top;spacingLeft=4;spacingRight=4;overflow=hidden;rotatable=0;points=[[0,0.5],[1,0.5]];portConstraint=eastwest;" parent="423" vertex="1"><mxGeometry y="910" width="480" height="26" as="geometry"/></mxCell><mxCell id="48" value="+ TREE_HEALTH_MAX: int &lt;&lt;static&gt;&gt;" style="text;strokeColor=none;fillColor=none;align=left;verticalAlign=top;spacingLeft=4;spacingRight=4;overflow=hidden;rotatable=0;points=[[0,0.5],[1,0.5]];portConstraint=eastwest;" parent="423" vertex="1"><mxGeometry y="936" width="480" height="26" as="geometry"/></mxCell><mxCell id="49" value="+ TREE_HEALTH_MIN: int &lt;&lt;static&gt;&gt;" style="text;strokeColor=none;fillColor=none;align=left;verticalAlign=top;spacingLeft=4;spacingRight=4;overflow=hidden;rotatable=0;points=[[0,0.5],[1,0.5]];portConstraint=eastwest;" parent="423" vertex="1"><mxGeometry y="962" width="480" height="26" as="geometry"/></mxCell><mxCell id="424" value="- kind: EntityKind" style="text;strokeColor=none;fillColor=none;align=left;verticalAlign=top;spacingLeft=4;spacingRight=4;overflow=hidden;rotatable=0;points=[[0,0.5],[1,0.5]];portConstraint=eastwest;" parent="423" vertex="1"><mxGeometry y="988" width="480" height="26" as="geometry"/></mxCell><mxCell id="425" value="- id: String" style="text;strokeColor=none;fillColor=none;align=left;verticalAlign=top;spacingLeft=4;spacingRight=4;overflow=hidden;rotatable=0;points=[[0,0.5],[1,0.5]];portConstraint=eastwest;" parent="423" vertex="1"><mxGeometry y="1014" width="480" height="26" as="geometry"/></mxCell><mxCell id="426" value="- position: Point" style="text;strokeColor=none;fillColor=none;align=left;verticalAlign=top;spacingLeft=4;spacingRight=4;overflow=hidden;rotatable=0;points=[[0,0.5],[1,0.5]];portConstraint=eastwest;" parent="423" vertex="1"><mxGeometry y="1040" width="480" height="26" as="geometry"/></mxCell><mxCell id="428" value="- images: ImageStore" style="text;strokeColor=none;fillColor=none;align=left;verticalAlign=top;spacingLeft=4;spacingRight=4;overflow=hidden;rotatable=0;points=[[0,0.5],[1,0.5]];portConstraint=eastwest;" parent="423" vertex="1"><mxGeometry y="1066" width="480" height="26" as="geometry"/></mxCell><mxCell id="429" value="- imageIndex: int" style="text;strokeColor=none;fillColor=none;align=left;verticalAlign=top;spacingLeft=4;spacingRight=4;overflow=hidden;rotatable=0;points=[[0,0.5],[1,0.5]];portConstraint=eastwest;" parent="423" vertex="1"><mxGeometry y="1092" width="480" height="26" as="geometry"/></mxCell><mxCell id="431" value="- resourceLimit: int" style="text;strokeColor=none;fillColor=none;align=left;verticalAlign=top;spacingLeft=4;spacingRight=4;overflow=hidden;rotatable=0;points=[[0,0.5],[1,0.5]];portConstraint=eastwest;" parent="423" vertex="1"><mxGeometry y="1118" width="480" height="26" as="geometry"/></mxCell><mxCell id="432" value="- resourceCount: int" style="text;strokeColor=none;fillColor=none;align=left;verticalAlign=top;spacingLeft=4;spacingRight=4;overflow=hidden;rotatable=0;points=[[0,0.5],[1,0.5]];portConstraint=eastwest;" parent="423" vertex="1"><mxGeometry y="1144" width="480" height="26" as="geometry"/></mxCell><mxCell id="433" value="- actionPeriod: double" style="text;strokeColor=none;fillColor=none;align=left;verticalAlign=top;spacingLeft=4;spacingRight=4;overflow=hidden;rotatable=0;points=[[0,0.5],[1,0.5]];portConstraint=eastwest;" parent="423" vertex="1"><mxGeometry y="1170" width="480" height="26" as="geometry"/></mxCell><mxCell id="434" value="- animationPeriod: double" style="text;strokeColor=none;fillColor=none;align=left;verticalAlign=top;spacingLeft=4;spacingRight=4;overflow=hidden;rotatable=0;points=[[0,0.5],[1,0.5]];portConstraint=eastwest;" parent="423" vertex="1"><mxGeometry y="1196" width="480" height="26" as="geometry"/></mxCell><mxCell id="435" value="- health: int" style="text;strokeColor=none;fillColor=none;align=left;verticalAlign=top;spacingLeft=4;spacingRight=4;overflow=hidden;rotatable=0;points=[[0,0.5],[1,0.5]];portConstraint=eastwest;" parent="423" vertex="1"><mxGeometry y="1222" width="480" height="26" as="geometry"/></mxCell><mxCell id="436" value="- healthLimit: int" style="text;strokeColor=none;fillColor=none;align=left;verticalAlign=top;spacingLeft=4;spacingRight=4;overflow=hidden;rotatable=0;points=[[0,0.5],[1,0.5]];portConstraint=eastwest;" parent="423" vertex="1"><mxGeometry y="1248" width="480" height="26" as="geometry"/></mxCell><mxCell id="427" value="" style="line;strokeWidth=1;fillColor=none;align=left;verticalAlign=middle;spacingTop=-1;spacingLeft=3;spacingRight=3;rotatable=0;labelPosition=right;points=[];portConstraint=eastwest;strokeColor=inherit;" parent="423" vertex="1"><mxGeometry y="1274" width="480" height="8" as="geometry"/></mxCell><mxCell id="437" value="+ log(): String" style="text;strokeColor=none;fillColor=none;align=left;verticalAlign=top;spacingLeft=4;spacingRight=4;overflow=hidden;rotatable=0;points=[[0,0.5],[1,0.5]];portConstraint=eastwest;" parent="423" vertex="1"><mxGeometry y="1282" width="480" height="26" as="geometry"/></mxCell><mxCell id="Vil1EoqiKb39Gsy6wKJK-4" value="+ getAnimationPeriod(): double" style="text;strokeColor=none;fillColor=none;align=left;verticalAlign=top;spacingLeft=4;spacingRight=4;overflow=hidden;rotatable=0;points=[[0,0.5],[1,0.5]];portConstraint=eastwest;" parent="423" vertex="1"><mxGeometry y="1308" width="480" height="26" as="geometry"/></mxCell><mxCell id="50" value="+ nextImage(): void" style="text;strokeColor=none;fillColor=none;align=left;verticalAlign=top;spacingLeft=4;spacingRight=4;overflow=hidden;rotatable=0;points=[[0,0.5],[1,0.5]];portConstraint=eastwest;" parent="423" vertex="1"><mxGeometry y="1334" width="480" height="26" as="geometry"/></mxCell><mxCell id="55" value="+ executeSaplingActivity(WorldModel, ImageStore, EventScheduler): void" style="text;strokeColor=none;fillColor=none;align=left;verticalAlign=top;spacingLeft=4;spacingRight=4;overflow=hidden;rotatable=0;points=[[0,0.5],[1,0.5]];portConstraint=eastwest;" parent="423" vertex="1"><mxGeometry y="1360" width="480" height="26" as="geometry"/></mxCell><mxCell id="56" value="+ executeTreeActivity(WorldModel, ImageStore, EventScheduler): void" style="text;strokeColor=none;fillColor=none;align=left;verticalAlign=top;spacingLeft=4;spacingRight=4;overflow=hidden;rotatable=0;points=[[0,0.5],[1,0.5]];portConstraint=eastwest;" parent="423" vertex="1"><mxGeometry y="1386" width="480" height="26" as="geometry"/></mxCell><mxCell id="57" value="+ executeFairyActivity(WorldModel, ImageStore, EventScheduler): void" style="text;strokeColor=none;fillColor=none;align=left;verticalAlign=top;spacingLeft=4;spacingRight=4;overflow=hidden;rotatable=0;points=[[0,0.5],[1,0.5]];portConstraint=eastwest;" parent="423" vertex="1"><mxGeometry y="1412" width="480" height="26" as="geometry"/></mxCell><mxCell id="59" value="+ executeDudeFullActivity(WorldModel, ImageStore, EventScheduler): void" style="text;strokeColor=none;fillColor=none;align=left;verticalAlign=top;spacingLeft=4;spacingRight=4;overflow=hidden;rotatable=0;points=[[0,0.5],[1,0.5]];portConstraint=eastwest;" parent="423" vertex="1"><mxGeometry y="1438" width="480" height="26" as="geometry"/></mxCell><mxCell id="58" value="+ executeDudeNotFullActivity(WorldModel, ImageStore, EventScheduler): void" style="text;strokeColor=none;fillColor=none;align=left;verticalAlign=top;spacingLeft=4;spacingRight=4;overflow=hidden;rotatable=0;points=[[0,0.5],[1,0.5]];portConstraint=eastwest;" parent="423" vertex="1"><mxGeometry y="1464" width="480" height="26" as="geometry"/></mxCell><mxCell id="60" value="+ scheduleActions(WorldModel, ImageStore): void" style="text;strokeColor=none;fillColor=none;align=left;verticalAlign=top;spacingLeft=4;spacingRight=4;overflow=hidden;rotatable=0;points=[[0,0.5],[1,0.5]];portConstraint=eastwest;" parent="423" vertex="1"><mxGeometry y="1490" width="480" height="26" as="geometry"/></mxCell><mxCell id="61" value="+ transformNotFull(WorldModel, EventScheduler, ImageStore): boolean" style="text;strokeColor=none;fillColor=none;align=left;verticalAlign=top;spacingLeft=4;spacingRight=4;overflow=hidden;rotatable=0;points=[[0,0.5],[1,0.5]];portConstraint=eastwest;" parent="423" vertex="1"><mxGeometry y="1516" width="480" height="26" as="geometry"/></mxCell><mxCell id="62" value="+ transformFull(WorldModel, EventScheduler, ImageStore): boolean" style="text;strokeColor=none;fillColor=none;align=left;verticalAlign=top;spacingLeft=4;spacingRight=4;overflow=hidden;rotatable=0;points=[[0,0.5],[1,0.5]];portConstraint=eastwest;" parent="423" vertex="1"><mxGeometry y="1542" width="480" height="26" as="geometry"/></mxCell><mxCell id="63" value="+ transformPlant(WorldModel, EventScheduler, ImageStore): boolean" style="text;strokeColor=none;fillColor=none;align=left;verticalAlign=top;spacingLeft=4;spacingRight=4;overflow=hidden;rotatable=0;points=[[0,0.5],[1,0.5]];portConstraint=eastwest;" parent="423" vertex="1"><mxGeometry y="1568" width="480" height="26" as="geometry"/></mxCell><mxCell id="65" value="+ transformSapling(WorldModel, EventScheduler, ImageStore): boolean" style="text;strokeColor=none;fillColor=none;align=left;verticalAlign=top;spacingLeft=4;spacingRight=4;overflow=hidden;rotatable=0;points=[[0,0.5],[1,0.5]];portConstraint=eastwest;" parent="423" vertex="1"><mxGeometry y="1594" width="480" height="26" as="geometry"/></mxCell><mxCell id="64" value="+ transformTree(WorldModel, EventScheduler, ImageStore): boolean" style="text;strokeColor=none;fillColor=none;align=left;verticalAlign=top;spacingLeft=4;spacingRight=4;overflow=hidden;rotatable=0;points=[[0,0.5],[1,0.5]];portConstraint=eastwest;" parent="423" vertex="1"><mxGeometry y="1620" width="480" height="26" as="geometry"/></mxCell><mxCell id="66" value="+ moveToFairy(Entity, WorldModel, Entity, EventScheduler): boolean" style="text;strokeColor=none;fillColor=none;align=left;verticalAlign=top;spacingLeft=4;spacingRight=4;overflow=hidden;rotatable=0;points=[[0,0.5],[1,0.5]];portConstraint=eastwest;" parent="423" vertex="1"><mxGeometry y="1646" width="480" height="26" as="geometry"/></mxCell><mxCell id="67" value="+ moveToNotFull(Entity, WorldModel, Entity, EventScheduler): boolean" style="text;strokeColor=none;fillColor=none;align=left;verticalAlign=top;spacingLeft=4;spacingRight=4;overflow=hidden;rotatable=0;points=[[0,0.5],[1,0.5]];portConstraint=eastwest;" parent="423" vertex="1"><mxGeometry y="1672" width="480" height="26" as="geometry"/></mxCell><mxCell id="68" value="+ moveToFull(Entity, WorldModel, Entity, EventScheduler): boolean" style="text;strokeColor=none;fillColor=none;align=left;verticalAlign=top;spacingLeft=4;spacingRight=4;overflow=hidden;rotatable=0;points=[[0,0.5],[1,0.5]];portConstraint=eastwest;" parent="423" vertex="1"><mxGeometry y="1698" width="480" height="26" as="geometry"/></mxCell><mxCell id="69" value="+ nextPositionFairy(Entity, WorldModel, Point): Point" style="text;strokeColor=none;fillColor=none;align=left;verticalAlign=top;spacingLeft=4;spacingRight=4;overflow=hidden;rotatable=0;points=[[0,0.5],[1,0.5]];portConstraint=eastwest;" parent="423" vertex="1"><mxGeometry y="1724" width="480" height="26" as="geometry"/></mxCell><mxCell id="70" value="+ nextPositionDude(Entity, WorldModel, Point): Point" style="text;strokeColor=none;fillColor=none;align=left;verticalAlign=top;spacingLeft=4;spacingRight=4;overflow=hidden;rotatable=0;points=[[0,0.5],[1,0.5]];portConstraint=eastwest;" parent="423" vertex="1"><mxGeometry y="1750" width="480" height="26" as="geometry"/></mxCell><mxCell id="271" value="+ createHouse(String, Point, List&lt;PImage&gt;): Entity &lt;&lt;static&gt;&gt;" style="text;strokeColor=none;fillColor=none;align=left;verticalAlign=top;spacingLeft=4;spacingRight=4;overflow=hidden;rotatable=0;points=[[0,0.5],[1,0.5]];portConstraint=eastwest;" parent="423" vertex="1"><mxGeometry y="1776" width="480" height="26" as="geometry"/></mxCell><mxCell id="272" value="+ createObstacle(String, Point, double, List&lt;PImage&gt;): Entity &lt;&lt;static&gt;&gt;" style="text;strokeColor=none;fillColor=none;align=left;verticalAlign=top;spacingLeft=4;spacingRight=4;overflow=hidden;rotatable=0;points=[[0,0.5],[1,0.5]];portConstraint=eastwest;" parent="423" vertex="1"><mxGeometry y="1802" width="480" height="26" as="geometry"/></mxCell><mxCell id="273" value="+ createTree(String, Point, double, double, int, List&lt;PImage&gt;): Entity &lt;&lt;static&gt;&gt;" style="text;strokeColor=none;fillColor=none;align=left;verticalAlign=top;spacingLeft=4;spacingRight=4;overflow=hidden;rotatable=0;points=[[0,0.5],[1,0.5]];portConstraint=eastwest;" parent="423" vertex="1"><mxGeometry y="1828" width="480" height="26" as="geometry"/></mxCell><mxCell id="274" value="+ createStump(String, Point, List&lt;PImage&gt;): Entity &lt;&lt;static&gt;&gt;" style="text;strokeColor=none;fillColor=none;align=left;verticalAlign=top;spacingLeft=4;spacingRight=4;overflow=hidden;rotatable=0;points=[[0,0.5],[1,0.5]];portConstraint=eastwest;" parent="423" vertex="1"><mxGeometry y="1854" width="480" height="26" as="geometry"/></mxCell><mxCell id="376" value="+ createSapling(String, Point, List&lt;PImage&gt;, int): Entity &lt;&lt;static&gt;&gt;" style="text;strokeColor=none;fillColor=none;align=left;verticalAlign=top;spacingLeft=4;spacingRight=4;overflow=hidden;rotatable=0;points=[[0,0.5],[1,0.5]];portConstraint=eastwest;" parent="423" vertex="1"><mxGeometry y="1880" width="480" height="26" as="geometry"/></mxCell><mxCell id="377" value="+ createFairy(String, Point, double, double, List&lt;PImage&gt;): Entity &lt;&lt;static&gt;&gt;" style="text;strokeColor=none;fillColor=none;align=left;verticalAlign=top;spacingLeft=4;spacingRight=4;overflow=hidden;rotatable=0;points=[[0,0.5],[1,0.5]];portConstraint=eastwest;" parent="423" vertex="1"><mxGeometry y="1906" width="480" height="26" as="geometry"/></mxCell><mxCell id="378" value="+ createDudeNotFull(String, Point, double, double, int, List&lt;PImage&gt;): Entity &lt;&lt;static&gt;&gt;" style="text;strokeColor=none;fillColor=none;align=left;verticalAlign=top;spacingLeft=4;spacingRight=4;overflow=hidden;rotatable=0;points=[[0,0.5],[1,0.5]];portConstraint=eastwest;" parent="423" vertex="1"><mxGeometry y="1932" width="480" height="26" as="geometry"/></mxCell><mxCell id="379" value="+ createDude(String, Point, double, double, int, List&lt;PImage&gt;): Entity &lt;&lt;static&gt;&gt;" style="text;strokeColor=none;fillColor=none;align=left;verticalAlign=top;spacingLeft=4;spacingRight=4;overflow=hidden;rotatable=0;points=[[0,0.5],[1,0.5]];portConstraint=eastwest;" parent="423" vertex="1"><mxGeometry y="1958" width="480" height="26" as="geometry"/></mxCell><mxCell id="596" value="+ getKind(): EntityKind" style="text;strokeColor=none;fillColor=none;align=left;verticalAlign=top;spacingLeft=4;spacingRight=4;overflow=hidden;rotatable=0;points=[[0,0.5],[1,0.5]];portConstraint=eastwest;" parent="423" vertex="1"><mxGeometry y="1984" width="480" height="26" as="geometry"/></mxCell><mxCell id="602" value="+ getId(): String" style="text;strokeColor=none;fillColor=none;align=left;verticalAlign=top;spacingLeft=4;spacingRight=4;overflow=hidden;rotatable=0;points=[[0,0.5],[1,0.5]];portConstraint=eastwest;" parent="423" vertex="1"><mxGeometry y="2010" width="480" height="26" as="geometry"/></mxCell><mxCell id="597" value="+ getPosition(): Point" style="text;strokeColor=none;fillColor=none;align=left;verticalAlign=top;spacingLeft=4;spacingRight=4;overflow=hidden;rotatable=0;points=[[0,0.5],[1,0.5]];portConstraint=eastwest;" parent="423" vertex="1"><mxGeometry y="2036" width="480" height="26" as="geometry"/></mxCell><mxCell id="598" value="+ setPosition(Position): Point" style="text;strokeColor=none;fillColor=none;align=left;verticalAlign=top;spacingLeft=4;spacingRight=4;overflow=hidden;rotatable=0;points=[[0,0.5],[1,0.5]];portConstraint=eastwest;" parent="423" vertex="1"><mxGeometry y="2062" width="480" height="26" as="geometry"/></mxCell><mxCell id="599" value="+ getImages(): List&lt;PImage&gt;" style="text;strokeColor=none;fillColor=none;align=left;verticalAlign=top;spacingLeft=4;spacingRight=4;overflow=hidden;rotatable=0;points=[[0,0.5],[1,0.5]];portConstraint=eastwest;" parent="423" vertex="1"><mxGeometry y="2088" width="480" height="26" as="geometry"/></mxCell><mxCell id="600" value="+ getImageIndex(): int" style="text;strokeColor=none;fillColor=none;align=left;verticalAlign=top;spacingLeft=4;spacingRight=4;overflow=hidden;rotatable=0;points=[[0,0.5],[1,0.5]];portConstraint=eastwest;" parent="423" vertex="1"><mxGeometry y="2114" width="480" height="26" as="geometry"/></mxCell><mxCell id="601" value="+ getHealth(): int" style="text;strokeColor=none;fillColor=none;align=left;verticalAlign=top;spacingLeft=4;spacingRight=4;overflow=hidden;rotatable=0;points=[[0,0.5],[1,0.5]];portConstraint=eastwest;" parent="423" vertex="1"><mxGeometry y="2140" width="480" height="26" as="geometry"/></mxCell></root></mxGraphModel></diagram></mxfile>